<mxfile host="65bd71144e">
    <diagram id="SjAt0t-AKSOwX4iCXO0_" name="Page-1">
        <mxGraphModel dx="1127" dy="1331" grid="1" gridSize="10" guides="1" tooltips="1" connect="1" arrows="1" fold="1" page="0" pageScale="1" pageWidth="850" pageHeight="1100" math="0" shadow="0">
            <root>
                <mxCell id="0"/>
                <mxCell id="1" parent="0"/>
                <mxCell id="2" value="name" style="ellipse;whiteSpace=wrap;html=1;align=center;" parent="1" vertex="1">
                    <mxGeometry x="80" y="-610" width="100" height="40" as="geometry"/>
                </mxCell>
                <mxCell id="3" value="menuItems" style="whiteSpace=wrap;html=1;align=center;" parent="1" vertex="1">
                    <mxGeometry x="240" y="-580" width="100" height="40" as="geometry"/>
                </mxCell>
                <mxCell id="4" value="itemID" style="ellipse;whiteSpace=wrap;html=1;align=center;fontStyle=4;" parent="1" vertex="1">
                    <mxGeometry x="140" y="-690" width="100" height="40" as="geometry"/>
                </mxCell>
                <mxCell id="5" value="category" style="ellipse;whiteSpace=wrap;html=1;align=center;" parent="1" vertex="1">
                    <mxGeometry x="270" y="-710" width="100" height="40" as="geometry"/>
                </mxCell>
                <mxCell id="6" value="description" style="ellipse;whiteSpace=wrap;html=1;align=center;" parent="1" vertex="1">
                    <mxGeometry x="390" y="-680" width="100" height="40" as="geometry"/>
                </mxCell>
                <mxCell id="7" value="price" style="ellipse;whiteSpace=wrap;html=1;align=center;" parent="1" vertex="1">
                    <mxGeometry x="380" y="-520" width="100" height="40" as="geometry"/>
                </mxCell>
                <mxCell id="8" value="isVegan" style="ellipse;whiteSpace=wrap;html=1;align=center;" parent="1" vertex="1">
                    <mxGeometry x="140" y="-510" width="100" height="40" as="geometry"/>
                </mxCell>
                <mxCell id="9" value="" style="endArrow=none;html=1;rounded=0;exitX=0.5;exitY=1;exitDx=0;exitDy=0;entryX=0;entryY=0;entryDx=0;entryDy=0;" parent="1" source="4" target="3" edge="1">
                    <mxGeometry relative="1" as="geometry">
                        <mxPoint x="350" y="-500" as="sourcePoint"/>
                        <mxPoint x="510" y="-500" as="targetPoint"/>
                    </mxGeometry>
                </mxCell>
                <mxCell id="10" value="" style="endArrow=none;html=1;rounded=0;exitX=0;exitY=0.5;exitDx=0;exitDy=0;entryX=1;entryY=1;entryDx=0;entryDy=0;" parent="1" source="3" target="2" edge="1">
                    <mxGeometry relative="1" as="geometry">
                        <mxPoint x="350" y="-500" as="sourcePoint"/>
                        <mxPoint x="510" y="-500" as="targetPoint"/>
                    </mxGeometry>
                </mxCell>
                <mxCell id="11" value="" style="endArrow=none;html=1;rounded=0;exitX=0;exitY=1;exitDx=0;exitDy=0;entryX=1;entryY=0;entryDx=0;entryDy=0;" parent="1" source="3" target="8" edge="1">
                    <mxGeometry relative="1" as="geometry">
                        <mxPoint x="350" y="-500" as="sourcePoint"/>
                        <mxPoint x="510" y="-500" as="targetPoint"/>
                    </mxGeometry>
                </mxCell>
                <mxCell id="12" value="" style="endArrow=none;html=1;rounded=0;exitX=1;exitY=1;exitDx=0;exitDy=0;entryX=0;entryY=0;entryDx=0;entryDy=0;" parent="1" source="3" target="7" edge="1">
                    <mxGeometry relative="1" as="geometry">
                        <mxPoint x="350" y="-500" as="sourcePoint"/>
                        <mxPoint x="340" y="-460" as="targetPoint"/>
                    </mxGeometry>
                </mxCell>
                <mxCell id="13" value="" style="endArrow=none;html=1;rounded=0;entryX=0;entryY=1;entryDx=0;entryDy=0;exitX=0.5;exitY=0;exitDx=0;exitDy=0;" parent="1" source="3" target="5" edge="1">
                    <mxGeometry relative="1" as="geometry">
                        <mxPoint x="350" y="-500" as="sourcePoint"/>
                        <mxPoint x="510" y="-500" as="targetPoint"/>
                    </mxGeometry>
                </mxCell>
                <mxCell id="14" value="" style="endArrow=none;html=1;rounded=0;exitX=1;exitY=0;exitDx=0;exitDy=0;entryX=0;entryY=0.5;entryDx=0;entryDy=0;" parent="1" source="3" target="6" edge="1">
                    <mxGeometry relative="1" as="geometry">
                        <mxPoint x="350" y="-500" as="sourcePoint"/>
                        <mxPoint x="510" y="-500" as="targetPoint"/>
                    </mxGeometry>
                </mxCell>
                <mxCell id="15" value="orders" style="whiteSpace=wrap;html=1;align=center;" parent="1" vertex="1">
                    <mxGeometry x="290" y="-320" width="100" height="40" as="geometry"/>
                </mxCell>
                <mxCell id="16" value="orderID" style="ellipse;whiteSpace=wrap;html=1;align=center;fontStyle=4;" parent="1" vertex="1">
                    <mxGeometry x="30" y="-350" width="100" height="40" as="geometry"/>
                </mxCell>
                <mxCell id="17" value="customerName" style="ellipse;whiteSpace=wrap;html=1;align=center;" parent="1" vertex="1">
                    <mxGeometry x="50" y="-260" width="100" height="40" as="geometry"/>
                </mxCell>
                <mxCell id="18" value="phoneNumber" style="ellipse;whiteSpace=wrap;html=1;align=center;" parent="1" vertex="1">
                    <mxGeometry x="80" y="-440" width="100" height="40" as="geometry"/>
                </mxCell>
                <mxCell id="19" value="address" style="ellipse;whiteSpace=wrap;html=1;align=center;" parent="1" vertex="1">
                    <mxGeometry x="520" y="-420" width="100" height="40" as="geometry"/>
                </mxCell>
                <mxCell id="20" value="status" style="ellipse;whiteSpace=wrap;html=1;align=center;" parent="1" vertex="1">
                    <mxGeometry x="480" y="-330" width="100" height="40" as="geometry"/>
                </mxCell>
                <mxCell id="21" value="totalPrice" style="ellipse;whiteSpace=wrap;html=1;align=center;" parent="1" vertex="1">
                    <mxGeometry x="420" y="-260" width="100" height="40" as="geometry"/>
                </mxCell>
                <mxCell id="22" value="createdAt" style="ellipse;whiteSpace=wrap;html=1;align=center;" parent="1" vertex="1">
                    <mxGeometry x="310" y="-220" width="100" height="40" as="geometry"/>
                </mxCell>
                <mxCell id="23" value="items" style="ellipse;whiteSpace=wrap;html=1;align=center;" parent="1" vertex="1">
                    <mxGeometry x="170" y="-200" width="100" height="40" as="geometry"/>
                </mxCell>
                <mxCell id="24" value="" style="endArrow=none;html=1;rounded=0;exitX=1;exitY=1;exitDx=0;exitDy=0;entryX=0;entryY=0;entryDx=0;entryDy=0;" parent="1" source="16" target="15" edge="1">
                    <mxGeometry relative="1" as="geometry">
                        <mxPoint x="500" y="-400" as="sourcePoint"/>
                        <mxPoint x="660" y="-400" as="targetPoint"/>
                    </mxGeometry>
                </mxCell>
                <mxCell id="25" value="" style="endArrow=none;html=1;rounded=0;entryX=1;entryY=0.5;entryDx=0;entryDy=0;exitX=0;exitY=0.5;exitDx=0;exitDy=0;" parent="1" source="15" target="17" edge="1">
                    <mxGeometry relative="1" as="geometry">
                        <mxPoint x="500" y="-400" as="sourcePoint"/>
                        <mxPoint x="660" y="-400" as="targetPoint"/>
                    </mxGeometry>
                </mxCell>
                <mxCell id="26" value="" style="endArrow=none;html=1;rounded=0;exitX=0;exitY=1;exitDx=0;exitDy=0;entryX=1;entryY=0;entryDx=0;entryDy=0;" parent="1" source="19" target="15" edge="1">
                    <mxGeometry relative="1" as="geometry">
                        <mxPoint x="500" y="-400" as="sourcePoint"/>
                        <mxPoint x="660" y="-400" as="targetPoint"/>
                    </mxGeometry>
                </mxCell>
                <mxCell id="27" value="" style="endArrow=none;html=1;rounded=0;exitX=0.5;exitY=1;exitDx=0;exitDy=0;entryX=0.25;entryY=0;entryDx=0;entryDy=0;" parent="1" source="18" target="15" edge="1">
                    <mxGeometry relative="1" as="geometry">
                        <mxPoint x="500" y="-400" as="sourcePoint"/>
                        <mxPoint x="660" y="-400" as="targetPoint"/>
                    </mxGeometry>
                </mxCell>
                <mxCell id="28" value="" style="endArrow=none;html=1;rounded=0;exitX=1;exitY=0.5;exitDx=0;exitDy=0;entryX=0;entryY=0.5;entryDx=0;entryDy=0;" parent="1" source="15" target="20" edge="1">
                    <mxGeometry relative="1" as="geometry">
                        <mxPoint x="500" y="-300" as="sourcePoint"/>
                        <mxPoint x="660" y="-300" as="targetPoint"/>
                    </mxGeometry>
                </mxCell>
                <mxCell id="29" value="" style="endArrow=none;html=1;rounded=0;entryX=0;entryY=0;entryDx=0;entryDy=0;exitX=1;exitY=1;exitDx=0;exitDy=0;" parent="1" source="15" target="21" edge="1">
                    <mxGeometry relative="1" as="geometry">
                        <mxPoint x="500" y="-300" as="sourcePoint"/>
                        <mxPoint x="660" y="-300" as="targetPoint"/>
                    </mxGeometry>
                </mxCell>
                <mxCell id="30" value="" style="endArrow=none;html=1;rounded=0;exitX=0.5;exitY=1;exitDx=0;exitDy=0;entryX=0.5;entryY=0;entryDx=0;entryDy=0;" parent="1" source="15" target="22" edge="1">
                    <mxGeometry relative="1" as="geometry">
                        <mxPoint x="500" y="-300" as="sourcePoint"/>
                        <mxPoint x="660" y="-300" as="targetPoint"/>
                    </mxGeometry>
                </mxCell>
                <mxCell id="31" value="" style="endArrow=none;html=1;rounded=0;exitX=0;exitY=1;exitDx=0;exitDy=0;entryX=1;entryY=0;entryDx=0;entryDy=0;" parent="1" source="15" target="23" edge="1">
                    <mxGeometry relative="1" as="geometry">
                        <mxPoint x="500" y="-300" as="sourcePoint"/>
                        <mxPoint x="660" y="-300" as="targetPoint"/>
                    </mxGeometry>
                </mxCell>
                <mxCell id="33" value="userID" style="ellipse;whiteSpace=wrap;html=1;align=center;fontStyle=4;" parent="1" vertex="1">
                    <mxGeometry x="630" y="-640" width="100" height="40" as="geometry"/>
                </mxCell>
                <mxCell id="34" value="password" style="ellipse;whiteSpace=wrap;html=1;align=center;" parent="1" vertex="1">
                    <mxGeometry x="790" y="-510" width="100" height="40" as="geometry"/>
                </mxCell>
                <mxCell id="36" value="email" style="ellipse;whiteSpace=wrap;html=1;align=center;" parent="1" vertex="1">
                    <mxGeometry x="620" y="-490" width="100" height="40" as="geometry"/>
                </mxCell>
                <mxCell id="37" value="" style="endArrow=none;html=1;rounded=0;entryX=0.25;entryY=1;entryDx=0;entryDy=0;exitX=0.5;exitY=0;exitDx=0;exitDy=0;" parent="1" source="36" target="69" edge="1">
                    <mxGeometry relative="1" as="geometry">
                        <mxPoint x="500" y="-400" as="sourcePoint"/>
                        <mxPoint x="694.6446609406726" y="-535.8578643762689" as="targetPoint"/>
                    </mxGeometry>
                </mxCell>
                <mxCell id="38" value="" style="endArrow=none;html=1;rounded=0;entryX=0.5;entryY=1;entryDx=0;entryDy=0;exitX=0.25;exitY=0;exitDx=0;exitDy=0;" parent="1" source="69" target="33" edge="1">
                    <mxGeometry relative="1" as="geometry">
                        <mxPoint x="694.6446609406726" y="-564.142135623731" as="sourcePoint"/>
                        <mxPoint x="660" y="-400" as="targetPoint"/>
                    </mxGeometry>
                </mxCell>
                <mxCell id="40" value="" style="endArrow=none;html=1;rounded=0;entryX=0;entryY=0;entryDx=0;entryDy=0;exitX=0.75;exitY=1;exitDx=0;exitDy=0;" parent="1" source="69" target="34" edge="1">
                    <mxGeometry relative="1" as="geometry">
                        <mxPoint x="765.3553390593274" y="-535.857864376269" as="sourcePoint"/>
                        <mxPoint x="660" y="-500" as="targetPoint"/>
                    </mxGeometry>
                </mxCell>
                <mxCell id="41" value="has" style="shape=rhombus;perimeter=rhombusPerimeter;whiteSpace=wrap;html=1;align=center;" parent="1" vertex="1">
                    <mxGeometry x="250" y="-450" width="120" height="60" as="geometry"/>
                </mxCell>
                <mxCell id="42" value="" style="endArrow=none;html=1;rounded=0;entryX=0.5;entryY=1;entryDx=0;entryDy=0;exitX=0.5;exitY=0;exitDx=0;exitDy=0;" parent="1" source="41" target="3" edge="1">
                    <mxGeometry relative="1" as="geometry">
                        <mxPoint x="500" y="-300" as="sourcePoint"/>
                        <mxPoint x="660" y="-300" as="targetPoint"/>
                    </mxGeometry>
                </mxCell>
                <mxCell id="43" value="M" style="resizable=0;html=1;whiteSpace=wrap;align=left;verticalAlign=bottom;" parent="42" connectable="0" vertex="1">
                    <mxGeometry x="-1" relative="1" as="geometry">
                        <mxPoint y="-30" as="offset"/>
                    </mxGeometry>
                </mxCell>
                <mxCell id="48" value="updatedBy" style="shape=rhombus;perimeter=rhombusPerimeter;whiteSpace=wrap;html=1;align=center;" parent="1" vertex="1">
                    <mxGeometry x="460" y="-600" width="120" height="60" as="geometry"/>
                </mxCell>
                <mxCell id="49" value="" style="endArrow=none;html=1;rounded=0;entryX=0;entryY=0.5;entryDx=0;entryDy=0;exitX=1;exitY=0.5;exitDx=0;exitDy=0;" parent="1" source="48" target="69" edge="1">
                    <mxGeometry relative="1" as="geometry">
                        <mxPoint x="500" y="-400" as="sourcePoint"/>
                        <mxPoint x="680" y="-550" as="targetPoint"/>
                    </mxGeometry>
                </mxCell>
                <mxCell id="53" value="N" style="resizable=0;html=1;whiteSpace=wrap;align=right;verticalAlign=bottom;" parent="1" connectable="0" vertex="1">
                    <mxGeometry x="360.06213330798323" y="-339.8550222813724" as="geometry">
                        <mxPoint x="55" y="-232" as="offset"/>
                    </mxGeometry>
                </mxCell>
                <mxCell id="54" value="" style="shape=link;html=1;rounded=0;exitX=1;exitY=0.5;exitDx=0;exitDy=0;entryX=0;entryY=0.5;entryDx=0;entryDy=0;" parent="1" source="3" target="48" edge="1">
                    <mxGeometry relative="1" as="geometry">
                        <mxPoint x="360" y="-550" as="sourcePoint"/>
                        <mxPoint x="660" y="-400" as="targetPoint"/>
                    </mxGeometry>
                </mxCell>
                <mxCell id="55" value="1" style="resizable=0;html=1;whiteSpace=wrap;align=right;verticalAlign=bottom;" parent="54" connectable="0" vertex="1">
                    <mxGeometry x="1" relative="1" as="geometry">
                        <mxPoint x="170" as="offset"/>
                    </mxGeometry>
                </mxCell>
                <mxCell id="56" value="" style="shape=link;html=1;rounded=0;exitX=0.5;exitY=1;exitDx=0;exitDy=0;entryX=0.5;entryY=0;entryDx=0;entryDy=0;" parent="1" source="41" target="15" edge="1">
                    <mxGeometry relative="1" as="geometry">
                        <mxPoint x="500" y="-400" as="sourcePoint"/>
                        <mxPoint x="660" y="-400" as="targetPoint"/>
                    </mxGeometry>
                </mxCell>
                <mxCell id="59" value="N" style="resizable=0;html=1;whiteSpace=wrap;align=right;verticalAlign=bottom;" parent="1" connectable="0" vertex="1">
                    <mxGeometry x="290.00213330798323" y="-119.99502228137237" as="geometry">
                        <mxPoint x="55" y="-232" as="offset"/>
                    </mxGeometry>
                </mxCell>
                <mxCell id="60" value="city" style="ellipse;whiteSpace=wrap;html=1;align=center;" parent="1" vertex="1">
                    <mxGeometry x="620" y="-350" width="100" height="40" as="geometry"/>
                </mxCell>
                <mxCell id="61" value="street" style="ellipse;whiteSpace=wrap;html=1;align=center;" parent="1" vertex="1">
                    <mxGeometry x="400" y="-440" width="100" height="40" as="geometry"/>
                </mxCell>
                <mxCell id="62" value="postalcode" style="ellipse;whiteSpace=wrap;html=1;align=center;" parent="1" vertex="1">
                    <mxGeometry x="650" y="-420" width="100" height="40" as="geometry"/>
                </mxCell>
                <mxCell id="64" value="" style="endArrow=none;html=1;rounded=0;entryX=1;entryY=0.5;entryDx=0;entryDy=0;exitX=0;exitY=0.5;exitDx=0;exitDy=0;" parent="1" source="19" target="61" edge="1">
                    <mxGeometry relative="1" as="geometry">
                        <mxPoint x="380" y="-320" as="sourcePoint"/>
                        <mxPoint x="540" y="-320" as="targetPoint"/>
                    </mxGeometry>
                </mxCell>
                <mxCell id="67" value="" style="endArrow=none;html=1;rounded=0;exitX=1;exitY=0.5;exitDx=0;exitDy=0;entryX=0;entryY=0.5;entryDx=0;entryDy=0;" parent="1" source="19" target="62" edge="1">
                    <mxGeometry relative="1" as="geometry">
                        <mxPoint x="550" y="-420" as="sourcePoint"/>
                        <mxPoint x="710" y="-420" as="targetPoint"/>
                    </mxGeometry>
                </mxCell>
                <mxCell id="68" value="" style="endArrow=none;html=1;rounded=0;exitX=0.5;exitY=1;exitDx=0;exitDy=0;entryX=0;entryY=0;entryDx=0;entryDy=0;" parent="1" source="19" target="60" edge="1">
                    <mxGeometry relative="1" as="geometry">
                        <mxPoint x="550" y="-420" as="sourcePoint"/>
                        <mxPoint x="710" y="-420" as="targetPoint"/>
                    </mxGeometry>
                </mxCell>
                <mxCell id="69" value="users" style="whiteSpace=wrap;html=1;align=center;" parent="1" vertex="1">
                    <mxGeometry x="680" y="-570" width="100" height="40" as="geometry"/>
                </mxCell>
            </root>
        </mxGraphModel>
    </diagram>
</mxfile>